<?xml version="1.0" encoding="UTF-8"?>
<svg version="1.1" xmlns="http://www.w3.org/2000/svg" width="1436" height="1481">
<path d="M0 0 C1.37083733 -0.00352835 1.37083733 -0.00352835 2.76936835 -0.00712797 C5.81817969 -0.01376151 8.86694785 -0.01336147 11.91576576 -0.01294994 C14.12928571 -0.01625208 16.34280506 -0.01997838 18.55632365 -0.02409142 C24.62916548 -0.03407954 30.70199743 -0.03782306 36.77484632 -0.04048073 C42.65517588 -0.04399115 48.53549797 -0.05213929 54.41582303 -0.06002467 C70.16279314 -0.08082667 85.90976506 -0.09133204 101.6567457 -0.10015428 C109.1122082 -0.10436672 116.56766991 -0.10958789 124.02313174 -0.11483881 C149.56467976 -0.13272503 175.10622803 -0.14771934 200.64778137 -0.155159 C202.24999592 -0.15563375 203.85221047 -0.15610964 205.45442501 -0.15658666 C206.64620233 -0.15694122 206.64620233 -0.15694122 207.86205595 -0.15730295 C211.88717155 -0.15850409 215.91228714 -0.15971956 219.93740273 -0.16094494 C220.73618405 -0.16118509 221.53496537 -0.16142524 222.35795219 -0.16167267 C248.24532154 -0.16956227 274.13264503 -0.19298916 300.01999436 -0.22550088 C327.4161466 -0.25984443 354.81227203 -0.27951428 382.20844615 -0.28280324 C385.21935186 -0.28322075 388.23025756 -0.2837003 391.24116325 -0.28422642 C391.98248475 -0.28434961 392.72380624 -0.2844728 393.48759203 -0.28459973 C405.38684049 -0.286926 417.28603542 -0.30255368 429.18526485 -0.32306826 C441.15942474 -0.34338358 453.13352074 -0.34877667 465.10769467 -0.33929763 C471.58711001 -0.33476211 478.06635247 -0.33659595 484.54574394 -0.35605907 C490.48881454 -0.37375633 496.43158698 -0.3726398 502.37466104 -0.35716178 C504.51333466 -0.35479569 506.65202929 -0.35905674 508.79067092 -0.37099043 C526.78364307 -0.46509302 543.56453687 1.94579591 560.61074257 7.88422108 C561.61556679 8.2285619 562.62039101 8.57290272 563.65566444 8.92767811 C588.74068455 17.72824595 610.22671149 31.81875471 629.42324257 50.13422108 C630.21601601 50.87414295 631.00878944 51.61406483 631.82558632 52.37640858 C666.85602364 85.99085283 679.19362377 135.2116961 680.42324257 182.13422108 C680.99429726 182.11327381 681.56535194 182.09232655 682.15371132 182.07074451 C722.82464332 180.79371605 759.73194905 192.69086746 789.76210976 220.5321703 C793.77723878 224.40449196 797.16116052 228.62167425 800.42324257 233.13422108 C800.82349648 233.67739979 801.22375038 234.2205785 801.63613319 234.78021717 C810.9927513 247.58987292 817.23733429 261.32211701 821.73574257 276.50922108 C822.08137245 277.65511707 822.08137245 277.65511707 822.43398476 278.82416248 C828.15508739 299.43609391 827.87440808 320.32660286 827.82621908 341.51236558 C827.81852245 345.96476815 827.8256943 350.41715391 827.83037758 354.86955738 C827.83580134 362.33061583 827.8287278 369.79158452 827.81435585 377.25262928 C827.79798178 385.85184799 827.80336587 394.45085378 827.81983507 403.05006748 C827.83348252 410.47650194 827.83535532 417.90287265 827.82751906 425.3293156 C827.82286733 429.74649798 827.82214934 434.16358042 827.83212852 438.58075619 C827.84084565 442.72689511 827.83469053 446.87276071 827.81744576 451.01887035 C827.81350843 452.53167869 827.81456721 454.04451038 827.82123375 455.55730915 C827.87683083 469.46368731 826.08886778 481.76371078 816.38418007 492.36078358 C805.75299259 502.39091452 795.33196988 504.74642973 781.22011757 504.45453358 C774.75879318 504.14768304 770.0828606 502.19670328 764.42324257 499.13422108 C762.52362889 498.15358535 760.62242154 497.17603399 758.72011757 496.20062733 C753.72779683 493.62892014 748.75702467 491.01922523 743.79824257 488.38348866 C741.68591229 487.2723873 739.55964866 486.19796975 737.42324257 485.13422108 C737.32066832 486.24093946 737.21809406 487.34765783 737.1124115 488.48791313 C735.72618974 503.06390778 733.92634864 517.58094441 732.08370249 532.10517132 C731.62767933 535.70435772 731.17470258 539.30392782 730.72131634 542.90344715 C729.9305816 549.17795728 729.13796378 555.45222718 728.34405518 561.72633648 C727.17045271 571.00115426 725.99982544 580.27634586 724.82979961 589.55161542 C722.87284442 605.06451857 720.91350629 620.57711983 718.95275307 636.08954334 C717.00996978 651.45984057 715.06823085 666.83026913 713.12786293 682.20087147 C713.00674004 683.16033961 712.88561715 684.11980775 712.76082387 685.10835068 C712.14683195 689.97209416 711.53285821 694.83583993 710.91889179 699.69958663 C706.68193787 733.2638247 702.44271007 766.82777515 698.20205116 800.3915453 C694.56020535 829.21589447 690.91949903 858.04038699 687.28115273 886.86517811 C687.17946972 887.67075526 687.07778672 888.47633241 686.97302242 889.306321 C685.86657586 898.07208175 684.76016915 906.83784753 683.65378189 915.60361576 C678.75381784 954.42537069 673.85313285 993.24703362 668.94545937 1032.06781483 C668.85549455 1032.77946367 668.76552973 1033.49111251 668.6728387 1034.22432646 C666.97870582 1047.62539807 665.28442839 1061.0264514 663.58986282 1074.4274683 C662.55372425 1082.62153225 661.51769529 1090.81561006 660.48183632 1099.00970936 C660.39733777 1099.67812907 660.31283922 1100.34654878 660.22578011 1101.03522363 C657.28347141 1124.31080807 654.34854873 1147.58731789 651.41673374 1170.86422634 C648.92997451 1190.60713985 646.43943124 1210.34957339 643.94571209 1230.091609 C642.38990111 1242.40985908 640.83755067 1254.72853408 639.29017174 1267.04784626 C638.26606526 1275.19862442 637.23762862 1283.34884849 636.20563686 1291.49863201 C635.6208062 1296.11819399 635.03789438 1300.73797539 634.46041298 1305.35846233 C633.93603907 1309.55382221 633.40603731 1313.74843211 632.87164128 1317.94252682 C632.68157675 1319.44194414 632.49351658 1320.94161737 632.30779541 1322.44157887 C628.34126806 1354.43860033 628.34126806 1354.43860033 616.68496132 1365.46625233 C609.48522031 1370.77590589 600.67022301 1375.25630169 591.62265956 1375.26187158 C590.65154287 1375.26488755 589.68042617 1375.26790351 588.67988169 1375.27101088 C587.61352374 1375.2692414 586.54716579 1375.26747193 585.44849396 1375.26564884 C583.7416516 1375.26872779 583.7416516 1375.26872779 582.00032759 1375.27186894 C578.82757546 1375.2765655 575.65485903 1375.27676187 572.48210501 1375.27509135 C569.03569481 1375.27436129 565.58929227 1375.27938076 562.14288533 1375.28366637 C555.30089938 1375.29125372 548.45892124 1375.29343981 541.61693152 1375.29399543 C533.42418833 1375.29490835 525.23145237 1375.30157375 517.03871228 1375.30834225 C497.23538342 1375.32441218 477.43205532 1375.33030666 457.62872111 1375.335091 C448.2625338 1375.33742596 438.8963471 1375.3410285 429.53016027 1375.34478638 C397.47608342 1375.35762277 365.42200692 1375.36834188 333.36792755 1375.37178898 C331.35525455 1375.37201061 329.34258156 1375.3722324 327.32990856 1375.37245433 C325.31233987 1375.37267497 323.29477118 1375.37289545 321.27720249 1375.37311578 C317.22952835 1375.37355833 313.18185421 1375.37400545 309.13418007 1375.37445545 C308.13059007 1375.37456484 307.12700008 1375.37467423 306.09299826 1375.37478694 C273.54790024 1375.37841797 241.00282449 1375.39433933 208.45773499 1375.41764582 C174.0586971 1375.44223498 139.65967194 1375.45596139 105.260625 1375.4571569 C101.48533384 1375.45732835 97.71004267 1375.45754378 93.93475151 1375.45779133 C93.00515147 1375.4578471 92.07555143 1375.45790287 91.11778169 1375.45796032 C76.14965287 1375.45911157 61.18154688 1375.47013986 46.21342578 1375.48467838 C31.1715871 1375.49903599 16.12977772 1375.50228453 1.08793406 1375.49423841 C-7.85048207 1375.48977866 -16.78880369 1375.49365652 -25.72720742 1375.50947691 C-31.69792505 1375.51921766 -37.66857638 1375.51805732 -43.63929339 1375.50804068 C-47.04131709 1375.50264203 -50.44301106 1375.50361508 -53.84504355 1375.5145494 C-57.51251454 1375.52559242 -61.17950456 1375.51818787 -64.84696198 1375.50615788 C-65.89927293 1375.51375307 -66.95158389 1375.52134826 -68.03578305 1375.52917361 C-79.75315756 1375.44602152 -90.00290765 1372.0403243 -98.80722618 1364.13031483 C-106.18517498 1356.39246608 -109.46982109 1348.397089 -110.94896507 1337.87891102 C-111.07304806 1337.02295849 -111.19713104 1336.16700596 -111.32497412 1335.28511548 C-113.25003642 1321.72158397 -114.85407968 1308.11285022 -116.5068672 1294.51403747 C-117.028064 1290.23090959 -117.55249281 1285.94817719 -118.07649612 1281.66539192 C-118.99080444 1274.18897731 -119.90310614 1266.71232005 -120.8140564 1259.23549557 C-122.16389763 1248.15649174 -123.51695979 1237.07788293 -124.87068539 1225.99935315 C-127.13776429 1207.44548196 -129.40235314 1188.89130767 -131.66544151 1170.33694935 C-133.89720602 1152.03947142 -136.12992993 1133.74211102 -138.36404991 1115.44492054 C-138.50288591 1114.30786774 -138.64172191 1113.17081493 -138.78476506 1111.99930599 C-139.63023739 1105.07505352 -140.47575075 1098.15080607 -141.32127476 1091.22655992 C-142.60414207 1080.72070453 -143.88693 1070.21483945 -145.16971397 1059.70897388 C-145.31170217 1058.54611704 -145.45369038 1057.38326019 -145.59998125 1056.18516526 C-147.62990522 1039.5603781 -149.65931797 1022.93552859 -151.6883871 1006.31063706 C-159.01536436 946.27852009 -166.35268823 886.24767877 -173.70138203 826.21821632 C-175.39702669 812.36692754 -177.09224177 798.51558623 -178.78725243 784.66421986 C-179.04243367 782.57894469 -179.2976152 780.49366955 -179.55279702 778.40839446 C-180.55847275 770.19026319 -181.56413908 761.97213077 -182.56977165 753.75399423 C-183.30849188 747.71711817 -184.04723986 741.68024551 -184.78601646 735.64337635 C-184.90682417 734.65620268 -185.02763188 733.66902901 -185.15210042 732.65194099 C-187.09499533 716.77606607 -189.03935219 700.90037051 -190.98419706 685.02473437 C-192.92749379 669.16141996 -194.86904949 653.29789322 -196.80883712 637.43414932 C-197.95571615 628.05535371 -199.10397703 618.67672965 -200.25421602 609.2983455 C-201.01831326 603.06729069 -201.78069203 596.83602724 -202.5416373 590.60458673 C-202.97504798 587.05578007 -203.40923782 583.50707334 -203.84553707 579.95862055 C-204.31388243 576.14940137 -204.77854046 572.33973781 -205.24280357 568.53001881 C-205.37989225 567.41997343 -205.51698093 566.30992804 -205.65822381 565.16624492 C-205.78066533 564.15643049 -205.90310686 563.14661605 -206.02925873 562.10620117 C-206.18909561 560.80064924 -206.18909561 560.80064924 -206.35216153 559.46872252 C-206.57675743 557.13422108 -206.57675743 557.13422108 -206.57675743 553.13422108 C-207.30693077 553.01216297 -208.03710411 552.89010487 -208.78940392 552.76434803 C-211.52673814 552.14552876 -213.66513698 551.2909067 -216.17441368 550.05218983 C-217.04815636 549.62107899 -217.92189903 549.18996815 -218.82211876 548.74579334 C-219.75177452 548.27584949 -220.68143028 547.80590565 -221.63925743 547.32172108 C-223.09658287 546.5868346 -223.09658287 546.5868346 -224.58334923 545.83710194 C-250.79149484 532.4342669 -292.84031244 510.30222576 -303.38925743 480.44672108 C-305.23104886 474.51950138 -305.72495138 468.68364882 -305.71719933 462.50377369 C-305.72017045 461.75518457 -305.72314157 461.00659546 -305.72620273 460.23532182 C-305.73484596 457.73701049 -305.73639429 455.23874732 -305.73789024 452.74042225 C-305.74252177 450.94448209 -305.74754688 449.14854291 -305.75293541 447.35260487 C-305.76603515 442.4780076 -305.77250044 437.60342409 -305.77694607 432.72881198 C-305.77988266 429.6769532 -305.78398872 426.62509814 -305.78845024 423.57324123 C-305.80212308 414.00669599 -305.81178897 404.44015929 -305.81565213 394.87360495 C-305.82012281 383.8653523 -305.83762549 372.85722443 -305.86665273 361.84900969 C-305.88835487 353.31960399 -305.89836106 344.79023317 -305.89969325 336.26080018 C-305.90073583 331.17697998 -305.90652519 326.0932771 -305.92451286 321.0094862 C-305.94114011 316.21678199 -305.94307891 311.42428141 -305.93437386 306.63155842 C-305.93361106 304.88583863 -305.93784426 303.14010724 -305.94783211 301.39441586 C-306.09410492 274.20267751 -299.34100994 248.5340265 -280.57675743 228.13422108 C-279.91184288 227.40573963 -279.91184288 227.40573963 -279.23349571 226.66254139 C-248.7422507 193.61355532 -204.4027203 183.46077655 -161.24204063 179.44379139 C-158.64573986 179.14223333 -156.13081391 178.68447704 -153.57675743 178.13422108 C-153.51729942 177.55382069 -153.45784142 176.9734203 -153.39658165 176.37543201 C-148.87385244 133.61356873 -137.57723333 89.5650605 -110.57675743 55.13422108 C-109.89097618 54.24476795 -109.20519493 53.35531483 -108.49863243 52.43890858 C-85.69523096 23.64756356 -54.09026143 5.31286925 -17.43678626 0.87512868 C-11.60394382 0.25202039 -5.86344362 -0.01046638 0 0 Z M-43.85410118 103.75140858 C-61.69254495 126.25529149 -68.24035616 155.09740578 -70.57675743 183.13422108 C149.86324257 183.13422108 370.30324257 183.13422108 597.42324257 183.13422108 C597.5097866 172.1543736 597.5097866 172.1543736 596.29824257 161.44672108 C596.16699989 160.69616444 596.03575722 159.9456078 595.90053749 159.17230701 C591.23549771 134.41230568 579.18866931 112.70874227 558.32168007 97.93890858 C550.76523391 93.10351846 542.8670534 89.17291733 534.42324257 86.13422108 C533.75924222 85.87948125 533.09524187 85.62474143 532.4111203 85.36228222 C522.5216068 82.09151329 512.27825922 82.71473416 501.99114418 82.74654102 C499.79651901 82.74236544 497.60189601 82.73688669 495.40727699 82.73022121 C489.39154738 82.71577755 483.3759549 82.72000803 477.36021781 82.72738802 C470.86656457 82.73212002 464.37294098 82.71960955 457.87929726 82.70937061 C445.89816583 82.69257917 433.91707589 82.69073709 421.93593547 82.6956756 C410.86560675 82.70023632 399.79529425 82.69962918 388.72496605 82.69383526 C387.23885656 82.69307839 385.75274707 82.69232241 384.26663759 82.69156731 C382.02708479 82.69042209 379.78753199 82.68927221 377.5479792 82.68810807 C356.73225014 82.67740625 335.91652647 82.67267456 315.10079575 82.68057823 C314.3164681 82.68087541 313.53214046 82.68117258 312.72404531 82.68147876 C306.35513386 82.68392758 299.98622247 82.68653923 293.61731108 82.68916289 C268.77639147 82.69926469 243.93553947 82.69090989 219.09462929 82.66766834 C191.17126066 82.64158493 163.24793272 82.62875068 135.32455146 82.63585609 C132.34608452 82.63657213 129.36761758 82.63724652 126.38915062 82.63789654 C125.65580257 82.63806635 124.92245451 82.63823616 124.16688379 82.63841111 C113.10648922 82.64071215 102.04613248 82.63274643 90.98574638 82.61960506 C78.40439421 82.60468302 65.82313691 82.60423899 53.24178638 82.62167598 C46.82399569 82.6301937 40.40637405 82.63231635 33.98859215 82.61702442 C28.11006325 82.6031909 22.23184842 82.60792379 16.35333775 82.62726366 C14.23030082 82.63102801 12.10723882 82.62808923 9.98422422 82.61765201 C-11.47294826 82.51969075 -29.17529133 86.88210737 -43.85410118 103.75140858 Z M-218.97519493 283.27484608 C-222.40341784 287.25492926 -222.8404434 290.43662992 -222.92493248 295.65340137 C-222.93793038 296.30650978 -222.95092829 296.95961819 -222.96432006 297.63251776 C-223.00505204 299.81931628 -223.03152543 302.00604133 -223.05771446 304.19305897 C-223.08334731 305.7619983 -223.10961848 307.33092731 -223.13648033 308.89984608 C-223.36824386 323.22120011 -223.48156967 337.54531333 -223.57001495 351.86819267 C-223.63645934 362.44897898 -223.75550113 373.0263347 -223.94503701 383.60564905 C-224.07392944 391.05292684 -224.14112134 398.499273 -224.16351402 405.94762319 C-224.17860222 410.39250886 -224.2206288 414.83324872 -224.32956886 419.27690792 C-225.80604325 438.1589774 -225.80604325 438.1589774 -219.16092491 454.65543079 C-215.91142 457.24008634 -212.53470578 458.91823939 -208.64535809 460.32924366 C-205.26158635 461.64600812 -202.33821256 463.58785032 -199.26425743 465.50922108 C-139.69243539 498.83527454 -66.93341435 522.33099395 1.54824257 522.38422108 C2.34259712 522.38489582 3.13695168 522.38557056 3.95537758 522.38626575 C72.58449217 522.29521524 140.41462227 505.97580459 205.42324257 485.13422108 C206.51804939 484.78454273 206.51804939 484.78454273 207.63497353 484.42780018 C254.33196644 469.50033713 299.81726706 451.44948533 344.42324257 431.13422108 C346.13084755 430.35764149 346.13084755 430.35764149 347.8729496 429.56537342 C351.41411707 427.95012988 354.95111979 426.32623467 358.48574257 424.69672108 C359.65621132 424.15716785 360.82668007 423.61761463 362.03261757 423.06171131 C367.65807899 420.44292166 373.21857955 417.75334373 378.70058632 414.84515858 C455.99786287 373.97603345 555.87332598 365.1738879 722.65224648 392.34442616 C728.8107359 394.2584698 734.92308493 396.29704916 741.0226078 398.39105701 C743.32282805 399.23279569 743.32282805 399.23279569 745.42324257 399.13422108 C745.49319399 388.58873965 745.54628067 378.04331472 745.57867908 367.49764729 C745.59423989 362.59924 745.61529978 357.70099312 745.64956093 352.80267811 C745.68250037 348.06289087 745.70016735 343.32325652 745.7078743 338.58336353 C745.71335647 336.78793912 745.72405876 334.9925217 745.74043274 333.19716358 C745.91055587 313.74460328 744.48863647 293.76518032 730.42324257 279.04047108 C717.04522668 266.23579872 699.28070162 263.96871919 681.55621147 264.01955318 C680.25013083 264.01929813 678.94405019 264.01904307 677.59839135 264.01878029 C673.9677615 264.01820458 670.33716411 264.02388442 666.70654133 264.03055897 C662.75820626 264.03669948 658.80987014 264.03697831 654.86153102 264.03797901 C647.93898161 264.04052737 641.01644316 264.04676176 634.09389877 264.05539036 C623.79843663 264.06818643 613.50297635 264.07518176 603.2075081 264.08084732 C586.94366959 264.08989444 570.67983602 264.10239354 554.41600187 264.11727266 C528.57006813 264.14088414 502.72413568 264.15517266 476.87819391 264.1664393 C466.92832943 264.17080916 456.97846507 264.17544579 447.02860069 264.18004131 C445.92304224 264.18054984 444.81748379 264.18105837 443.67842357 264.18158231 C417.35296504 264.19371996 391.02750792 264.2080818 364.70205116 264.22357655 C362.97413169 264.22458929 362.97413169 264.22458929 361.21130475 264.2256225 C334.36721423 264.24139556 307.52312659 264.25930123 280.67904091 264.28192616 C279.52644924 264.28289743 278.37385757 264.2838687 277.18633888 264.2848694 C267.89718212 264.29271526 258.60802543 264.30063763 249.31886875 264.30857966 C210.9466301 264.3413274 172.57439662 264.36389571 134.20214536 264.37487404 C128.77224077 264.37643858 123.34233623 264.37813299 117.91243172 264.37991428 C116.8438754 264.38026305 115.77531909 264.38061182 114.67438228 264.38097116 C97.53647287 264.38688959 80.3985907 264.40365732 63.26069396 264.42475597 C45.99966345 264.44581408 28.73865377 264.4559647 11.4776102 264.45521201 C1.24691274 264.4551057 -8.983697 264.46325801 -19.21437437 264.4837505 C-26.07828585 264.49665613 -32.94214481 264.49829406 -39.80606469 264.49139235 C-43.69764047 264.48778665 -47.58905481 264.48849782 -51.4806082 264.50319184 C-70.49251877 264.57113539 -89.20370033 263.64577204 -108.13034749 261.81693447 C-116.4878764 261.01493742 -124.74484298 260.66384253 -133.13925743 260.75922108 C-133.82159447 260.76354145 -134.5039315 260.76786182 -135.20694542 260.77231312 C-163.4365377 260.9769924 -197.21336062 262.94139471 -218.97519493 283.27484608 Z " fill="#771F33" transform="translate(456.5767574310303,52.86577892303467)"/>
</svg>
